<svg width="175" height="63" viewBox="0 0 175 63" fill="none" xmlns="http://www.w3.org/2000/svg">
<path d="M173.263 22.8725L173.205 22.687C172.446 20.2649 171.391 18.0767 169.91 16.1696L169.91 16.1695C168.432 14.2648 166.623 12.8848 164.483 11.8488L164.479 11.8469L164.48 11.8468C163.87 11.5181 163.133 11.1913 162.515 11.0287L162.502 11.0254L173.263 22.8725ZM173.263 22.8725L173.305 22.8159M173.263 22.8725L173.305 22.8159M173.305 22.8159C173.921 25.2009 174.326 27.7717 174.326 30.529C174.326 33.3823 173.996 36.0182 173.271 38.438C172.512 40.8609 171.458 43.0799 169.979 44.8526C168.481 46.6447 166.689 48.1068 164.469 49.1584C162.985 49.8007 161.389 50.3261 159.696 50.5395L159.696 50.5394L159.693 50.54L159.693 50.54L159.693 50.54L159.691 50.5403L159.685 50.5413L159.658 50.5454C159.649 50.5467 159.638 50.5482 159.626 50.5499C159.606 50.5528 159.581 50.5563 159.551 50.5602C159.458 50.5727 159.319 50.5897 159.141 50.608C158.786 50.6444 158.272 50.6856 157.643 50.7041C156.384 50.7412 154.662 50.6876 152.809 50.3256L152.808 50.3253C151.536 50.0945 150.372 49.7988 149.308 49.2756L149.287 49.2653H149.264C149.261 49.2653 149.261 49.265 149.261 49.2651C149.262 49.2653 149.262 49.2654 149.261 49.2648C149.259 49.2641 149.257 49.2624 149.253 49.2587C149.248 49.2546 149.244 49.25 149.236 49.2426L149.236 49.2424C149.222 49.2275 149.198 49.2029 149.165 49.1836C149.149 49.1744 149.132 49.1668 149.113 49.1611C149.109 49.1525 149.105 49.1443 149.099 49.1364C149.078 49.1049 149.051 49.0852 149.026 49.0731C149.003 49.0613 148.98 49.0558 148.964 49.0532C148.956 49.0519 148.949 49.0511 148.943 49.0508L148.936 49.0504L148.934 49.0503L148.933 49.0503L148.932 49.0503H148.932H148.932L148.932 49.1503L148.932 49.0503H148.873C148.225 48.742 147.705 48.4326 147.085 48.0094L147.085 48.0093C145.686 47.0556 144.535 46.0205 143.465 44.7551C142.099 42.9451 140.929 40.7567 140.172 38.3382C139.43 35.9188 139.1 33.2831 139.1 30.4298C139.1 27.6919 139.43 24.9568 140.155 22.5537L140.155 22.5535C140.913 20.018 141.967 17.9294 143.448 16.0221C144.929 14.2468 146.739 12.7682 148.876 11.7167C150.85 10.7969 153.088 10.2541 155.625 10.1388L155.625 10.1388L155.626 10.1387C157.34 10.04 158.822 10.1388 159.972 10.3357L161.478 10.6525C161.485 10.6675 161.492 10.6817 161.502 10.6949C161.529 10.7309 161.565 10.7514 161.597 10.7633C161.639 10.7787 161.686 10.7826 161.723 10.7836C161.858 10.8997 161.996 10.8997 162.09 10.8997L162.093 10.8997C162.182 10.8997 162.281 10.9278 162.361 10.959C162.4 10.9743 162.433 10.9896 162.456 11.001C162.468 11.0067 162.477 11.0114 162.482 11.0145L162.489 11.018L162.49 11.0188L162.49 11.0189L162.49 11.0189L162.491 11.0189L162.491 11.0189L173.305 22.8159ZM148.256 24.9473L148.242 25.0036L148.261 25.0229C147.935 26.7014 147.722 28.5706 147.607 30.3738L147.607 30.3737V30.3801C147.607 32.285 147.723 34.1961 148.14 35.8945L148.14 35.8951C148.572 37.6031 149.104 39.0851 149.873 40.3536C150.626 41.6578 151.597 42.6107 152.683 43.3618L152.684 43.3624C153.779 44.103 155.058 44.4379 156.465 44.4379C157.887 44.4379 159.166 44.1202 160.246 43.3615C161.332 42.6104 162.304 41.6577 163.056 40.3868L163.057 40.3858C163.808 39.0851 164.341 37.6038 164.773 35.8951L164.773 35.8952L164.774 35.8889C165.089 34.1972 165.305 32.2892 165.305 30.3801V29.7517C165.305 27.8423 165.089 26.1305 164.64 24.435C164.224 22.7405 163.675 21.3588 162.924 20.0764L162.924 20.0764L162.923 20.0739C162.172 18.8735 161.319 17.9366 160.246 17.2C159.15 16.442 157.954 16.1405 156.547 16.1405C155.152 16.1405 153.859 16.5603 152.766 17.3157C151.693 18.0527 150.723 19.1225 149.972 20.3901L149.972 20.3906C149.22 21.6761 148.687 23.291 148.256 24.9473Z" fill="white" stroke="black" stroke-width="0.2"/>
<mask id="path-2-inside-1_740_35" fill="white">
<path fill-rule="evenodd" clip-rule="evenodd" d="M82.4525 4.25327C82.4525 1.90546 84.3378 0 86.6607 0C88.9837 0 90.869 1.90546 90.869 4.25327C90.869 6.60106 88.9837 8.50649 86.6607 8.50649C84.3378 8.6086 82.4525 6.72016 82.4525 4.25327ZM91.0501 9.70594H81.9104V51H91.0501V9.70594Z"/>
</mask>
<path fill-rule="evenodd" clip-rule="evenodd" d="M82.4525 4.25327C82.4525 1.90546 84.3378 0 86.6607 0C88.9837 0 90.869 1.90546 90.869 4.25327C90.869 6.60106 88.9837 8.50649 86.6607 8.50649C84.3378 8.6086 82.4525 6.72016 82.4525 4.25327ZM91.0501 9.70594H81.9104V51H91.0501V9.70594Z" fill="white"/>
<path d="M86.6607 8.50649V8.3063L86.652 8.30669L86.6607 8.50649ZM81.9104 9.70594V9.50594H81.7104V9.70594H81.9104ZM91.0501 9.70594H91.2501V9.50594H91.0501V9.70594ZM81.9104 51H81.7104V51.2H81.9104V51ZM91.0501 51V51.2H91.2501V51H91.0501ZM86.6607 -0.2C84.2253 -0.2 82.2525 1.79702 82.2525 4.25327H82.6525C82.6525 2.01391 84.4503 0.2 86.6607 0.2V-0.2ZM91.069 4.25327C91.069 1.79702 89.0961 -0.2 86.6607 -0.2V0.2C88.8712 0.2 90.669 2.01391 90.669 4.25327H91.069ZM86.6607 8.70649C89.0961 8.70649 91.069 6.70951 91.069 4.25327H90.669C90.669 6.49262 88.8712 8.30649 86.6607 8.30649V8.70649ZM82.2525 4.25327C82.2525 6.82395 84.2229 8.81384 86.6695 8.7063L86.652 8.30669C84.4527 8.40335 82.6525 6.61637 82.6525 4.25327H82.2525ZM81.9104 9.90594H91.0501V9.50594H81.9104V9.90594ZM82.1104 51V9.70594H81.7104V51H82.1104ZM91.0501 50.8H81.9104V51.2H91.0501V50.8ZM90.8501 9.70594V51H91.2501V9.70594H90.8501Z" fill="black" mask="url(#path-2-inside-1_740_35)"/>
<path d="M34.1726 23.0345L34.0985 22.7952C33.342 20.3522 32.2906 18.1451 30.8141 16.2216C29.3392 14.3004 27.5366 12.9086 25.4034 11.8638L25.3994 11.8618L25.3995 11.8617C24.7926 11.5302 24.0578 11.2006 23.4414 11.0366L23.4286 11.0332L34.1726 23.0345ZM34.1726 23.0345L34.2033 22.9724M34.1726 23.0345L34.2033 22.9724M34.2033 22.9724C34.8919 25.3613 35.1996 27.9385 35.1996 30.7052C35.1996 33.5829 34.8705 36.2416 34.1478 38.6823C33.391 41.1262 32.3399 43.3646 30.8657 45.1527L30.8655 45.153C29.3892 46.96 27.5858 48.4347 25.3727 49.4954C23.8934 50.1432 22.3027 50.673 20.6159 50.8882L20.6159 50.8881L20.6126 50.8887L20.6125 50.8887L20.6122 50.8887L20.6106 50.889L20.604 50.89L20.5772 50.8941C20.5534 50.8976 20.5178 50.9028 20.4711 50.909C20.3777 50.9216 20.2398 50.9388 20.0626 50.9572C19.7081 50.994 19.1964 51.0355 18.5689 51.0542C17.3137 51.0916 15.597 51.0376 13.7498 50.6725L13.7485 50.6722C12.4813 50.4394 11.3202 50.1411 10.2598 49.6135L10.2388 49.6031H10.2153C10.1575 49.6031 10.1636 49.6003 10.1671 49.6023C10.1672 49.6024 10.1659 49.6017 10.1628 49.599C10.1596 49.5962 10.1552 49.5919 10.1488 49.5852C10.1393 49.5751 10.1281 49.5623 10.1132 49.5448C10.1075 49.5159 10.0956 49.4898 10.0784 49.4675C10.0544 49.4362 10.0242 49.4179 9.9992 49.407C9.97416 49.3962 9.9505 49.3912 9.93405 49.3889C9.92557 49.3876 9.91832 49.387 9.91286 49.3867L9.9059 49.3863L9.90345 49.3863L9.90249 49.3863H9.90208H9.9019H9.90181L9.90172 49.4863L9.90172 49.3863H9.84202C9.19701 49.0752 8.67791 48.7632 8.06081 48.3365C6.68153 47.374 5.51679 46.3293 4.45047 45.0526C2.97511 43.2299 1.92454 41.1241 1.16854 38.5827L1.1684 38.5822C0.429215 36.1418 0.1 33.4831 0.1 30.6051C0.1 27.8436 0.429255 25.0848 1.15201 22.6608L1.15208 22.6606C1.9079 20.1033 2.95849 17.9966 4.43503 16.0728C5.91168 14.2822 7.71546 12.7909 9.84632 11.7305C11.8135 10.8029 14.0444 10.2554 16.5735 10.1392L16.5747 10.1391C18.2832 10.0395 19.76 10.1391 20.9067 10.3377L22.4086 10.6573C22.4146 10.6723 22.4224 10.6866 22.4323 10.6999C22.459 10.7361 22.4943 10.7569 22.5266 10.7689C22.5696 10.7849 22.6177 10.7887 22.6548 10.7895C22.7198 10.8414 22.7815 10.8718 22.8426 10.8885C22.9092 10.9066 22.9701 10.9066 23.018 10.9066L23.0215 10.9066C23.1104 10.9066 23.2082 10.9348 23.2881 10.9663C23.3271 10.9817 23.36 10.9971 23.3829 11.0086C23.3944 11.0143 23.4033 11.019 23.4091 11.0222L23.4156 11.0257L23.417 11.0265L23.4171 11.0266L23.4171 11.0266L23.4172 11.0266L23.4172 11.0266L34.2033 22.9724ZM9.32611 36.2503C9.77185 38.0523 10.2696 39.5491 10.9381 40.6141C11.689 41.9288 12.6565 42.8894 13.722 43.6465L13.7234 43.6475C14.8158 44.3949 16.1072 44.7325 17.5261 44.7325C18.9108 44.7325 20.2198 44.4121 21.2971 43.6465C22.3629 42.8892 23.3309 41.9282 24.0655 40.6458L24.0655 40.6456C24.814 39.3344 25.3615 37.8405 25.7757 36.1159L25.7758 36.1159L25.7767 36.1116C26.1077 34.405 26.3064 32.4815 26.3066 30.5577L26.3395 29.9264L26.3396 29.9264V29.9212C26.3396 27.9945 26.1074 26.2683 25.6765 24.5593C25.2457 22.8513 24.7145 21.4578 23.9663 20.1637L23.9663 20.1637L23.9647 20.1612C23.2158 18.9502 22.3488 18.0057 21.2969 17.2632L21.2965 17.2629C20.2036 16.4982 19.0108 16.1941 17.6086 16.1941C16.1854 16.1941 14.9112 16.6173 13.8382 17.3796C12.7518 18.1231 11.7854 19.2021 11.0366 20.4801L11.0363 20.4806C10.2934 21.7656 9.76537 23.3768 9.35361 25.0323L9.32033 25.0492L9.30946 25.094C8.89412 26.8067 8.77855 28.734 8.77855 30.6551C8.77855 32.5594 8.8941 34.5204 9.32611 36.2503ZM9.32611 36.2503C9.32611 36.2503 9.32612 36.2503 9.32612 36.2503L9.42314 36.2261L9.32607 36.2501C9.32608 36.2501 9.32609 36.2502 9.32611 36.2503Z" fill="white" stroke="black" stroke-width="0.2"/>
<mask id="path-5-inside-2_740_35" fill="white">
<path fill-rule="evenodd" clip-rule="evenodd" d="M131.365 22.5191C130.602 20.1145 129.54 17.939 128.047 16.0415C126.553 14.1441 124.728 12.7701 122.571 11.7396C121.957 11.4124 121.21 11.0853 120.579 10.9217C120.579 10.9217 120.347 10.7908 120.131 10.7908C120.032 10.7908 119.932 10.7908 119.8 10.6763C119.717 10.6763 119.6 10.6763 119.6 10.5618L118.024 10.2347C116.863 10.0384 115.369 9.94031 113.643 10.0384C111.088 10.1529 108.831 10.6927 106.84 11.6087C104.683 12.6556 102.858 14.1277 101.364 15.8943C99.8707 17.7918 98.8087 19.8692 98.0454 22.3882C97.3153 24.7764 97 27.4917 97 30.207C97 33.0368 97.3319 35.654 98.062 38.0585C98.8253 40.4631 100.003 42.6386 101.381 44.4379C102.459 45.6974 103.638 46.7279 105.031 47.6766C105.662 48.1019 106.193 48.4127 106.857 48.7235H106.94C106.94 48.7235 107.056 48.7235 107.056 48.8217C107.104 48.8217 107.129 48.8481 107.154 48.8756L107.154 48.8758C107.182 48.9054 107.211 48.9362 107.272 48.9362C108.334 49.4596 109.512 49.754 110.789 49.983C114.523 50.7028 117.725 50.1957 117.725 50.1957C119.435 49.983 121.044 49.4596 122.538 48.8217C122.71 48.7414 122.879 48.6588 123.046 48.5737V51.8965L118.907 56.6428L118.477 57.0728L118.907 62.894H125.297L132.018 55.3859L132.5 31.4999V29.4999L132.468 29.5159C132.411 27.0008 132.074 24.6467 131.398 22.4536L131.365 22.5191ZM106.475 24.8091C106.89 23.1733 107.421 21.5867 108.168 20.3272C108.914 19.084 109.877 18.0371 110.955 17.3174C112.017 16.5813 113.278 16.1724 114.689 16.1724C116.083 16.1724 117.261 16.4668 118.339 17.2029C119.385 17.9226 120.248 18.8386 120.994 20.0164C121.741 21.2759 122.272 22.6336 122.703 24.302C123.135 25.9705 123.367 27.6553 123.367 29.5364V30.1579C123.367 32.039 123.135 33.9201 122.803 35.5886C122.388 37.2734 121.841 38.7292 121.094 40.0051C120.364 41.2482 119.401 42.1806 118.339 42.9167C117.277 43.6527 115.983 43.9635 114.606 43.9635C113.195 43.9635 111.918 43.6364 110.839 42.9167C109.777 42.1806 108.815 41.2482 108.068 39.9723C107.321 38.7292 106.79 37.2734 106.359 35.5886C105.927 33.9201 105.828 32.039 105.828 30.1579L105.832 30.0893C105.947 28.3113 106.066 26.4727 106.492 24.8254L106.475 24.8091Z"/>
</mask>
<path fill-rule="evenodd" clip-rule="evenodd" d="M131.365 22.5191C130.602 20.1145 129.54 17.939 128.047 16.0415C126.553 14.1441 124.728 12.7701 122.571 11.7396C121.957 11.4124 121.21 11.0853 120.579 10.9217C120.579 10.9217 120.347 10.7908 120.131 10.7908C120.032 10.7908 119.932 10.7908 119.8 10.6763C119.717 10.6763 119.6 10.6763 119.6 10.5618L118.024 10.2347C116.863 10.0384 115.369 9.94031 113.643 10.0384C111.088 10.1529 108.831 10.6927 106.84 11.6087C104.683 12.6556 102.858 14.1277 101.364 15.8943C99.8707 17.7918 98.8087 19.8692 98.0454 22.3882C97.3153 24.7764 97 27.4917 97 30.207C97 33.0368 97.3319 35.654 98.062 38.0585C98.8253 40.4631 100.003 42.6386 101.381 44.4379C102.459 45.6974 103.638 46.7279 105.031 47.6766C105.662 48.1019 106.193 48.4127 106.857 48.7235H106.94C106.94 48.7235 107.056 48.7235 107.056 48.8217C107.104 48.8217 107.129 48.8481 107.154 48.8756L107.154 48.8758C107.182 48.9054 107.211 48.9362 107.272 48.9362C108.334 49.4596 109.512 49.754 110.789 49.983C114.523 50.7028 117.725 50.1957 117.725 50.1957C119.435 49.983 121.044 49.4596 122.538 48.8217C122.71 48.7414 122.879 48.6588 123.046 48.5737V51.8965L118.907 56.6428L118.477 57.0728L118.907 62.894H125.297L132.018 55.3859L132.5 31.4999V29.4999L132.468 29.5159C132.411 27.0008 132.074 24.6467 131.398 22.4536L131.365 22.5191ZM106.475 24.8091C106.89 23.1733 107.421 21.5867 108.168 20.3272C108.914 19.084 109.877 18.0371 110.955 17.3174C112.017 16.5813 113.278 16.1724 114.689 16.1724C116.083 16.1724 117.261 16.4668 118.339 17.2029C119.385 17.9226 120.248 18.8386 120.994 20.0164C121.741 21.2759 122.272 22.6336 122.703 24.302C123.135 25.9705 123.367 27.6553 123.367 29.5364V30.1579C123.367 32.039 123.135 33.9201 122.803 35.5886C122.388 37.2734 121.841 38.7292 121.094 40.0051C120.364 41.2482 119.401 42.1806 118.339 42.9167C117.277 43.6527 115.983 43.9635 114.606 43.9635C113.195 43.9635 111.918 43.6364 110.839 42.9167C109.777 42.1806 108.815 41.2482 108.068 39.9723C107.321 38.7292 106.79 37.2734 106.359 35.5886C105.927 33.9201 105.828 32.039 105.828 30.1579L105.832 30.0893C105.947 28.3113 106.066 26.4727 106.492 24.8254L106.475 24.8091Z" fill="white"/>
<path d="M128.047 16.0415L128.204 15.9178L128.204 15.9178L128.047 16.0415ZM131.365 22.5191L131.174 22.5796L131.323 23.0473L131.543 22.6091L131.365 22.5191ZM122.571 11.7396L122.477 11.9163L122.485 11.9201L122.571 11.7396ZM120.579 10.9217L120.481 11.0959L120.503 11.1087L120.529 11.1153L120.579 10.9217ZM119.8 10.6763L119.931 10.5252L119.874 10.4763H119.8V10.6763ZM119.6 10.5618H119.8V10.3991L119.64 10.366L119.6 10.5618ZM118.024 10.2347L118.064 10.0387L118.057 10.0375L118.024 10.2347ZM113.643 10.0384L113.652 10.2382L113.654 10.2381L113.643 10.0384ZM106.84 11.6087L106.756 11.427L106.752 11.4288L106.84 11.6087ZM101.364 15.8943L101.211 15.7651L101.207 15.7706L101.364 15.8943ZM98.0454 22.3882L98.2367 22.4467L98.2368 22.4462L98.0454 22.3882ZM98.062 38.0585L97.8706 38.1166L97.8714 38.119L98.062 38.0585ZM101.381 44.4379L101.222 44.5597L101.229 44.568L101.381 44.4379ZM105.031 47.6766L104.918 47.8419L104.919 47.8425L105.031 47.6766ZM106.857 48.7235L106.772 48.9046L106.812 48.9235H106.857V48.7235ZM107.056 48.8217H106.856V49.0217H107.056V48.8217ZM107.154 48.8756L107.006 49.0102L107.008 49.0127L107.154 48.8756ZM107.154 48.8758L107.008 49.0129L107.008 49.013L107.154 48.8758ZM107.272 48.9362L107.36 48.7568L107.318 48.7362H107.272V48.9362ZM110.789 49.983L110.827 49.7866L110.824 49.7861L110.789 49.983ZM117.725 50.1957L117.7 49.9971L117.694 49.9982L117.725 50.1957ZM122.538 48.8217L122.616 49.0057L122.622 49.0029L122.538 48.8217ZM123.046 48.5737H123.246V48.2473L122.955 48.3955L123.046 48.5737ZM123.046 51.8965L123.197 52.0279L123.246 51.9714V51.8965H123.046ZM118.907 56.6428L119.049 56.7845L119.058 56.7742L118.907 56.6428ZM118.477 57.0728L118.335 56.9313L118.271 56.9961L118.277 57.0875L118.477 57.0728ZM118.907 62.894L118.707 62.9087L118.721 63.094H118.907V62.894ZM125.297 62.894V63.094H125.386L125.446 63.0273L125.297 62.894ZM132.018 55.3859L132.167 55.5193L132.216 55.464L132.218 55.3899L132.018 55.3859ZM132.5 31.4999L132.7 31.504V31.4999H132.5ZM132.5 29.4999H132.7V29.1766L132.411 29.321L132.5 29.4999ZM132.468 29.5159L132.268 29.5205L132.275 29.8356L132.557 29.6949L132.468 29.5159ZM131.398 22.4536L131.589 22.3946L131.443 21.9203L131.219 22.3636L131.398 22.4536ZM108.168 20.3272L107.996 20.2243L107.996 20.2252L108.168 20.3272ZM106.475 24.8091L106.281 24.7599L106.252 24.8728L106.336 24.9535L106.475 24.8091ZM110.955 17.3174L111.066 17.4838L111.069 17.4818L110.955 17.3174ZM118.339 17.2029L118.452 17.0381L118.452 17.0377L118.339 17.2029ZM120.994 20.0164L121.166 19.9143L121.163 19.9094L120.994 20.0164ZM122.703 24.302L122.509 24.352L122.509 24.3521L122.703 24.302ZM122.803 35.5886L122.997 35.6365L122.999 35.6276L122.803 35.5886ZM121.094 40.0051L121.266 40.1064L121.266 40.1062L121.094 40.0051ZM118.339 42.9167L118.453 43.0811L118.453 43.0811L118.339 42.9167ZM110.839 42.9167L110.725 43.0811L110.728 43.0831L110.839 42.9167ZM108.068 39.9723L108.24 39.8713L108.239 39.8693L108.068 39.9723ZM106.359 35.5886L106.553 35.539L106.552 35.5385L106.359 35.5886ZM105.828 30.1579L105.628 30.1462V30.1579H105.828ZM105.832 30.0893L105.632 30.0764L105.632 30.0777L105.832 30.0893ZM106.492 24.8254L106.685 24.8755L106.715 24.7621L106.63 24.6811L106.492 24.8254ZM127.89 16.1652C129.365 18.0401 130.417 20.1929 131.174 22.5796L131.555 22.4586C130.787 20.0361 129.715 17.8379 128.204 15.9178L127.89 16.1652ZM122.485 11.9201C124.617 12.939 126.417 14.2948 127.89 16.1652L128.204 15.9178C126.689 13.9934 124.838 12.6012 122.657 11.5591L122.485 11.9201ZM120.529 11.1153C121.139 11.2735 121.87 11.5929 122.477 11.9161L122.665 11.5631C122.043 11.2319 121.281 10.8971 120.629 10.7281L120.529 11.1153ZM120.131 10.9908C120.203 10.9908 120.288 11.0138 120.364 11.0429C120.4 11.0568 120.43 11.0707 120.451 11.081C120.462 11.0861 120.47 11.0902 120.475 11.0929C120.477 11.0942 120.479 11.0952 120.48 11.0957C120.481 11.096 120.481 11.0961 120.481 11.0961C120.481 11.0962 120.481 11.0962 120.481 11.0961C120.481 11.0961 120.481 11.0961 120.481 11.096C120.481 11.096 120.481 11.096 120.481 11.096C120.481 11.096 120.481 11.0959 120.481 11.0959C120.481 11.0959 120.481 11.0959 120.579 10.9217C120.677 10.7475 120.677 10.7475 120.677 10.7475C120.677 10.7475 120.677 10.7475 120.677 10.7474C120.677 10.7474 120.677 10.7474 120.677 10.7473C120.677 10.7473 120.677 10.7472 120.676 10.7471C120.676 10.747 120.676 10.7468 120.675 10.7465C120.674 10.7461 120.673 10.7455 120.672 10.7448C120.67 10.7434 120.666 10.7416 120.662 10.7393C120.653 10.7348 120.642 10.7287 120.627 10.7215C120.598 10.7073 120.557 10.6885 120.508 10.6696C120.413 10.6333 120.275 10.5908 120.131 10.5908V10.9908ZM119.669 10.8274C119.755 10.9022 119.84 10.9468 119.926 10.9698C120.009 10.9917 120.084 10.9908 120.131 10.9908V10.5908C120.079 10.5908 120.054 10.5899 120.029 10.5832C120.008 10.5776 119.977 10.5649 119.931 10.5252L119.669 10.8274ZM119.4 10.5618C119.4 10.6261 119.417 10.6923 119.46 10.7492C119.502 10.8044 119.556 10.834 119.601 10.8501C119.68 10.8786 119.768 10.8763 119.8 10.8763V10.4763C119.778 10.4763 119.763 10.4762 119.749 10.4751C119.735 10.474 119.733 10.4725 119.737 10.4739C119.741 10.4756 119.761 10.4838 119.778 10.5068C119.797 10.5315 119.8 10.5548 119.8 10.5618H119.4ZM117.983 10.4305L119.559 10.7576L119.64 10.366L118.064 10.0389L117.983 10.4305ZM113.654 10.2381C115.367 10.1408 116.846 10.2383 117.99 10.4319L118.057 10.0375C116.88 9.83848 115.371 9.73987 113.631 9.83873L113.654 10.2381ZM106.923 11.7904C108.889 10.8862 111.12 10.3517 113.652 10.2382L113.634 9.83861C111.056 9.95415 108.773 10.4992 106.756 11.427L106.923 11.7904ZM101.517 16.0234C102.994 14.2766 104.797 12.8225 106.927 11.7886L106.752 11.4288C104.569 12.4887 102.722 13.9788 101.211 15.7652L101.517 16.0234ZM98.2368 22.4462C98.9935 19.9489 100.045 17.8943 101.521 16.018L101.207 15.7706C99.6968 17.6894 98.6239 19.7895 97.854 22.3302L98.2368 22.4462ZM97.2 30.207C97.2 27.5058 97.5138 24.8111 98.2367 22.4467L97.8541 22.3297C97.1168 24.7417 96.8 27.4776 96.8 30.207H97.2ZM98.2534 38.0004C97.5301 35.6184 97.2 33.0214 97.2 30.207H96.8C96.8 33.0522 97.1337 35.6896 97.8706 38.1166L98.2534 38.0004ZM101.54 44.3163C100.176 42.5346 99.0086 40.3796 98.2526 37.998L97.8714 38.119C98.642 40.5466 99.8311 42.7426 101.222 44.5595L101.54 44.3163ZM105.143 47.5113C103.764 46.5716 102.599 45.5526 101.533 44.3078L101.229 44.568C102.32 45.8422 103.512 46.8842 104.918 47.8419L105.143 47.5113ZM106.942 48.5424C106.289 48.2367 105.767 47.9314 105.143 47.5108L104.919 47.8425C105.557 48.2724 106.097 48.5887 106.772 48.9046L106.942 48.5424ZM106.94 48.5235H106.857V48.9235H106.94V48.5235ZM107.256 48.8217C107.256 48.7546 107.235 48.692 107.195 48.6412C107.157 48.5933 107.111 48.5665 107.076 48.5516C107.04 48.5366 107.008 48.5301 106.986 48.527C106.974 48.5254 106.965 48.5245 106.957 48.5241C106.953 48.5238 106.95 48.5237 106.947 48.5236C106.945 48.5236 106.944 48.5235 106.943 48.5235C106.942 48.5235 106.942 48.5235 106.941 48.5235C106.941 48.5235 106.941 48.5235 106.94 48.5235C106.94 48.5235 106.94 48.5235 106.94 48.5235C106.94 48.5235 106.94 48.5235 106.94 48.5235C106.94 48.5235 106.94 48.5235 106.94 48.7235C106.94 48.9235 106.94 48.9235 106.94 48.9235C106.94 48.9235 106.94 48.9235 106.939 48.9235C106.939 48.9235 106.939 48.9235 106.939 48.9235C106.939 48.9235 106.939 48.9235 106.939 48.9235C106.938 48.9235 106.938 48.9235 106.937 48.9235C106.937 48.9235 106.936 48.9235 106.935 48.9235C106.934 48.9234 106.933 48.9234 106.933 48.9233C106.931 48.9233 106.931 48.9232 106.93 48.9231C106.93 48.9231 106.926 48.9227 106.92 48.92C106.914 48.9173 106.896 48.9089 106.881 48.8887C106.862 48.8655 106.856 48.8398 106.856 48.8217H107.256ZM107.302 48.7411C107.276 48.713 107.199 48.6217 107.056 48.6217V49.0217C107.049 49.0217 107.04 49.0207 107.029 49.0175C107.019 49.0143 107.01 49.0098 107.004 49.0058C106.998 49.0021 106.996 48.9993 106.996 48.9999C106.997 49.001 106.999 49.0031 107.006 49.0101L107.302 48.7411ZM107.3 48.7387L107.299 48.7385L107.008 49.0127L107.008 49.0129L107.3 48.7387ZM107.272 48.7362C107.274 48.7362 107.279 48.7365 107.287 48.7386C107.294 48.7408 107.301 48.744 107.306 48.7472C107.311 48.7502 107.313 48.7523 107.312 48.7511C107.31 48.7494 107.307 48.7468 107.3 48.7386L107.008 49.013C107.02 49.0252 107.051 49.0597 107.095 49.087C107.145 49.118 107.204 49.1362 107.272 49.1362V48.7362ZM110.824 49.7861C109.554 49.5583 108.397 49.2679 107.36 48.7568L107.183 49.1156C108.27 49.6513 109.47 49.9497 110.753 50.1799L110.824 49.7861ZM117.725 50.1957C117.694 49.9982 117.694 49.9982 117.694 49.9982C117.694 49.9982 117.694 49.9982 117.694 49.9982C117.693 49.9982 117.693 49.9982 117.693 49.9982C117.693 49.9983 117.692 49.9983 117.692 49.9984C117.69 49.9986 117.688 49.999 117.685 49.9994C117.68 50.0003 117.671 50.0016 117.659 50.0033C117.636 50.0067 117.6 50.0117 117.554 50.0178C117.461 50.03 117.323 50.0468 117.146 50.0647C116.792 50.1006 116.279 50.1411 115.651 50.1594C114.394 50.1959 112.675 50.143 110.827 49.7866L110.751 50.1794C112.636 50.5428 114.385 50.5963 115.663 50.5592C116.302 50.5406 116.824 50.4994 117.186 50.4627C117.368 50.4443 117.509 50.4271 117.606 50.4144C117.654 50.408 117.691 50.4028 117.717 50.3992C117.729 50.3973 117.739 50.3959 117.746 50.3949C117.749 50.3944 117.751 50.394 117.753 50.3937C117.754 50.3936 117.755 50.3935 117.755 50.3934C117.755 50.3933 117.756 50.3933 117.756 50.3933C117.756 50.3933 117.756 50.3933 117.756 50.3933C117.756 50.3933 117.756 50.3932 117.725 50.1957ZM122.459 48.6378C120.976 49.271 119.386 49.7876 117.7 49.9972L117.749 50.3942C119.484 50.1785 121.111 49.6482 122.616 49.0056L122.459 48.6378ZM122.955 48.3955C122.79 48.4795 122.623 48.5612 122.453 48.6405L122.622 49.0029C122.796 48.9217 122.968 48.838 123.137 48.7519L122.955 48.3955ZM122.846 48.5737V51.8965H123.246V48.5737H122.846ZM122.895 51.765L118.756 56.5113L119.058 56.7742L123.197 52.0279L122.895 51.765ZM118.765 56.5013L118.335 56.9313L118.618 57.2142L119.048 56.7842L118.765 56.5013ZM118.277 57.0875L118.707 62.9087L119.106 62.8792L118.676 57.058L118.277 57.0875ZM118.907 63.094H125.297V62.694H118.907V63.094ZM125.446 63.0273L132.167 55.5193L131.869 55.2525L125.148 62.7606L125.446 63.0273ZM132.218 55.3899L132.7 31.504L132.3 31.4959L131.818 55.3818L132.218 55.3899ZM132.7 31.4999V29.4999H132.3V31.4999H132.7ZM132.411 29.321L132.379 29.337L132.557 29.6949L132.589 29.6789L132.411 29.321ZM131.207 22.5126C131.877 24.6848 132.211 27.0202 132.268 29.5205L132.668 29.5114C132.61 26.9814 132.272 24.6085 131.589 22.3946L131.207 22.5126ZM131.543 22.6091L131.576 22.5436L131.219 22.3636L131.186 22.4291L131.543 22.6091ZM107.996 20.2252C107.234 21.5093 106.698 23.1177 106.281 24.7599L106.669 24.8583C107.082 23.229 107.607 21.6642 108.34 20.4292L107.996 20.2252ZM110.844 17.1511C109.738 17.8894 108.755 18.9594 107.996 20.2243L108.339 20.4301C109.072 19.2086 110.016 18.1848 111.066 17.4837L110.844 17.1511ZM114.689 15.9724C113.237 15.9724 111.937 16.3935 110.841 17.153L111.069 17.4818C112.097 16.7691 113.318 16.3724 114.689 16.3724V15.9724ZM118.452 17.0377C117.333 16.2742 116.114 15.9724 114.689 15.9724V16.3724C116.052 16.3724 117.188 16.6594 118.226 17.3681L118.452 17.0377ZM121.163 19.9094C120.404 18.7112 119.523 17.7747 118.452 17.0381L118.225 17.3677C119.247 18.0706 120.092 18.966 120.825 20.1234L121.163 19.9094ZM122.896 24.252C122.462 22.5698 121.925 21.1937 121.166 19.9144L120.822 20.1184C121.557 21.3582 122.082 22.6974 122.509 24.352L122.896 24.252ZM123.567 29.5364C123.567 27.6378 123.333 25.9362 122.896 24.2519L122.509 24.3521C122.937 26.0048 123.167 27.6728 123.167 29.5364H123.567ZM123.567 30.1579V29.5364H123.167V30.1579H123.567ZM122.999 35.6276C123.333 33.9491 123.567 32.0547 123.567 30.1579H123.167C123.167 32.0233 122.937 33.8911 122.607 35.5496L122.999 35.6276ZM121.266 40.1062C122.026 38.8096 122.579 37.3347 122.997 35.6364L122.609 35.5408C122.197 37.2121 121.656 38.6489 120.921 39.9041L121.266 40.1062ZM118.453 43.0811C119.534 42.3319 120.519 41.3792 121.266 40.1064L120.921 39.9038C120.209 41.1172 119.268 42.0294 118.225 42.7523L118.453 43.0811ZM114.606 44.1635C116.012 44.1635 117.349 43.8461 118.453 43.0811L118.225 42.7523C117.205 43.4593 115.954 43.7635 114.606 43.7635V44.1635ZM110.728 43.0831C111.846 43.8289 113.164 44.1635 114.606 44.1635V43.7635C113.226 43.7635 111.99 43.444 110.95 42.7503L110.728 43.0831ZM107.895 40.0734C108.659 41.3787 109.643 42.3315 110.725 43.0811L110.953 42.7523C109.91 42.0297 108.97 41.1177 108.24 39.8713L107.895 40.0734ZM106.165 35.6382C106.599 37.3333 107.136 38.8095 107.896 40.0753L108.239 39.8693C107.506 38.649 106.981 37.2135 106.553 35.539L106.165 35.6382ZM105.628 30.1579C105.628 32.0432 105.727 33.945 106.165 35.6387L106.552 35.5385C106.127 33.8953 106.028 32.0348 106.028 30.1579H105.628ZM105.632 30.0777L105.628 30.1463L106.027 30.1696L106.031 30.101L105.632 30.0777ZM106.298 24.7753C105.867 26.4443 105.747 28.3026 105.632 30.0764L106.031 30.1022C106.147 28.32 106.265 26.5011 106.685 24.8755L106.298 24.7753ZM106.336 24.9535L106.353 24.9698L106.63 24.6811L106.613 24.6648L106.336 24.9535Z" fill="black" mask="url(#path-5-inside-2_740_35)"/>
<mask id="path-7-inside-3_740_35" fill="white">
<path fill-rule="evenodd" clip-rule="evenodd" d="M75.3648 40.3749C74.6018 42.7795 73.5398 44.955 72.0468 46.8525C70.5528 48.7499 68.7278 50.1239 66.5708 51.1544C65.9568 51.4816 65.2098 51.8087 64.5788 51.9723C64.5788 51.9723 64.3468 52.1032 64.1308 52.1032C64.0318 52.1032 63.9318 52.1032 63.7998 52.2177C63.7168 52.2177 63.5998 52.2177 63.5998 52.3322L62.0238 52.6593C60.8628 52.8556 59.3688 52.9537 57.6428 52.8556C55.0878 52.7411 52.8308 52.2013 50.8398 51.2853C48.6828 50.2384 46.8578 48.7663 45.3641 46.9997C43.8707 45.1022 42.8087 43.0248 42.0454 40.5058C41.3153 38.1176 41 35.4023 41 32.687C41 29.8572 41.3319 27.24 42.062 24.8355C42.8253 22.4309 44.0034 20.2554 45.3807 18.4561C46.4592 17.1966 47.6378 16.1661 49.0308 15.2174C49.6618 14.7921 50.1928 14.4813 50.8568 14.1705L50.9398 14.1705C50.9398 14.1705 51.0558 14.1705 51.0558 14.0723C51.1038 14.0723 51.1288 14.0459 51.1538 14.0184L51.154 14.0182C51.1819 13.9886 51.2109 13.9578 51.2718 13.9578C52.3338 13.4344 53.5118 13.14 54.7888 12.911C58.5228 12.1912 61.7248 12.6983 61.7248 12.6983C63.4348 12.911 65.0438 13.4344 66.5378 14.0723C66.7096 14.1526 66.8789 14.2353 67.0458 14.3203L67.0458 10.9976L62.9068 6.25129L62.4768 5.82129L62.9068 9.34679e-05L69.2968 9.40265e-05L76.0178 7.50819L76.5 31.3941L76.5 33.3941L76.4679 33.3781C76.4106 35.8933 76.0745 38.2474 75.3978 40.4404L75.3648 40.3749ZM50.4748 38.0849C50.8898 39.7207 51.4208 41.3073 52.1678 42.5668C52.9138 43.81 53.8768 44.8569 54.9548 45.5766C56.0168 46.3127 57.2778 46.7216 58.6888 46.7216C60.0828 46.7216 61.2608 46.4272 62.3388 45.6911C63.3848 44.9714 64.2478 44.0554 64.9938 42.8776C65.7408 41.6181 66.2718 40.2604 66.7028 38.592C67.1348 36.9235 67.3668 35.2387 67.3668 33.3576L67.3668 32.7361C67.3668 30.855 67.1348 28.9739 66.8028 27.3054C66.3878 25.6206 65.8408 24.1648 65.0938 22.8889C64.3638 21.6458 63.4008 20.7134 62.3388 19.9773C61.2768 19.2413 59.9828 18.9305 58.6058 18.9305C57.1948 18.9305 55.9178 19.2576 54.8388 19.9773C53.7768 20.7134 52.8148 21.6458 52.0678 22.9217C51.3208 24.1648 50.7898 25.6206 50.3588 27.3054C49.9268 28.9739 49.8278 30.855 49.8278 32.7361L49.8318 32.8047C49.9468 34.5827 50.0658 36.4213 50.4918 38.0686L50.4748 38.0849Z"/>
</mask>
<path fill-rule="evenodd" clip-rule="evenodd" d="M75.3648 40.3749C74.6018 42.7795 73.5398 44.955 72.0468 46.8525C70.5528 48.7499 68.7278 50.1239 66.5708 51.1544C65.9568 51.4816 65.2098 51.8087 64.5788 51.9723C64.5788 51.9723 64.3468 52.1032 64.1308 52.1032C64.0318 52.1032 63.9318 52.1032 63.7998 52.2177C63.7168 52.2177 63.5998 52.2177 63.5998 52.3322L62.0238 52.6593C60.8628 52.8556 59.3688 52.9537 57.6428 52.8556C55.0878 52.7411 52.8308 52.2013 50.8398 51.2853C48.6828 50.2384 46.8578 48.7663 45.3641 46.9997C43.8707 45.1022 42.8087 43.0248 42.0454 40.5058C41.3153 38.1176 41 35.4023 41 32.687C41 29.8572 41.3319 27.24 42.062 24.8355C42.8253 22.4309 44.0034 20.2554 45.3807 18.4561C46.4592 17.1966 47.6378 16.1661 49.0308 15.2174C49.6618 14.7921 50.1928 14.4813 50.8568 14.1705L50.9398 14.1705C50.9398 14.1705 51.0558 14.1705 51.0558 14.0723C51.1038 14.0723 51.1288 14.0459 51.1538 14.0184L51.154 14.0182C51.1819 13.9886 51.2109 13.9578 51.2718 13.9578C52.3338 13.4344 53.5118 13.14 54.7888 12.911C58.5228 12.1912 61.7248 12.6983 61.7248 12.6983C63.4348 12.911 65.0438 13.4344 66.5378 14.0723C66.7096 14.1526 66.8789 14.2353 67.0458 14.3203L67.0458 10.9976L62.9068 6.25129L62.4768 5.82129L62.9068 9.34679e-05L69.2968 9.40265e-05L76.0178 7.50819L76.5 31.3941L76.5 33.3941L76.4679 33.3781C76.4106 35.8933 76.0745 38.2474 75.3978 40.4404L75.3648 40.3749ZM50.4748 38.0849C50.8898 39.7207 51.4208 41.3073 52.1678 42.5668C52.9138 43.81 53.8768 44.8569 54.9548 45.5766C56.0168 46.3127 57.2778 46.7216 58.6888 46.7216C60.0828 46.7216 61.2608 46.4272 62.3388 45.6911C63.3848 44.9714 64.2478 44.0554 64.9938 42.8776C65.7408 41.6181 66.2718 40.2604 66.7028 38.592C67.1348 36.9235 67.3668 35.2387 67.3668 33.3576L67.3668 32.7361C67.3668 30.855 67.1348 28.9739 66.8028 27.3054C66.3878 25.6206 65.8408 24.1648 65.0938 22.8889C64.3638 21.6458 63.4008 20.7134 62.3388 19.9773C61.2768 19.2413 59.9828 18.9305 58.6058 18.9305C57.1948 18.9305 55.9178 19.2576 54.8388 19.9773C53.7768 20.7134 52.8148 21.6458 52.0678 22.9217C51.3208 24.1648 50.7898 25.6206 50.3588 27.3054C49.9268 28.9739 49.8278 30.855 49.8278 32.7361L49.8318 32.8047C49.9468 34.5827 50.0658 36.4213 50.4918 38.0686L50.4748 38.0849Z" fill="white"/>
<path d="M72.0468 46.8525L72.204 46.9762L72.2039 46.9763L72.0468 46.8525ZM75.3648 40.3749L75.1742 40.3144L75.3226 39.8467L75.5434 40.2849L75.3648 40.3749ZM66.5708 51.1544L66.4767 50.9778L66.4846 50.974L66.5708 51.1544ZM64.5788 51.9723L64.4805 51.7981L64.5033 51.7853L64.5286 51.7787L64.5788 51.9723ZM63.7998 52.2177L63.9308 52.3688L63.8745 52.4177L63.7998 52.4177L63.7998 52.2177ZM63.5998 52.3322L63.7998 52.3322L63.7998 52.495L63.6404 52.5281L63.5998 52.3322ZM62.0238 52.6593L62.0645 52.8553L62.0571 52.8565L62.0238 52.6593ZM57.6428 52.8556L57.6518 52.6558L57.6541 52.656L57.6428 52.8556ZM50.8398 51.2853L50.7562 51.4671L50.7525 51.4653L50.8398 51.2853ZM45.3641 46.9997L45.2113 47.1289L45.2069 47.1234L45.3641 46.9997ZM42.0454 40.5058L42.2367 40.4474L42.2368 40.4478L42.0454 40.5058ZM42.062 24.8355L41.8706 24.7774L41.8714 24.775L42.062 24.8355ZM45.3807 18.4561L45.2217 18.3344L45.2288 18.3261L45.3807 18.4561ZM49.0308 15.2174L48.9182 15.0521L48.919 15.0516L49.0308 15.2174ZM50.8568 14.1705L50.772 13.9894L50.8123 13.9705L50.8568 13.9705L50.8568 14.1705ZM50.9398 14.1705L50.9398 13.9705L50.9398 14.1705ZM51.0558 14.0723L50.8558 14.0723L50.8558 13.8723L51.0558 13.8723L51.0558 14.0723ZM51.1538 14.0184L51.0058 13.8839L51.0082 13.8814L51.1538 14.0184ZM51.154 14.0182L51.0083 13.8812L51.0085 13.881L51.154 14.0182ZM51.2718 13.9578L51.3602 14.1372L51.3184 14.1578L51.2718 14.1578L51.2718 13.9578ZM54.7888 12.911L54.8267 13.1074L54.8241 13.1079L54.7888 12.911ZM61.7248 12.6983L61.7001 12.8969L61.6935 12.8959L61.7248 12.6983ZM66.5378 14.0723L66.6164 13.8883L66.6225 13.8911L66.5378 14.0723ZM67.0458 14.3203L67.2458 14.3203L67.2458 14.6467L66.955 14.4985L67.0458 14.3203ZM67.0458 10.9976L67.1965 10.8661L67.2458 10.9226L67.2458 10.9976L67.0458 10.9976ZM62.9068 6.25129L63.0486 6.10954L63.0575 6.11984L62.9068 6.25129ZM62.4768 5.82129L62.3354 5.96271L62.2706 5.89793L62.2774 5.80656L62.4768 5.82129ZM62.9068 9.34679e-05L62.7074 -0.01464L62.721 -0.199907L62.9068 -0.199907L62.9068 9.34679e-05ZM69.2968 9.40265e-05L69.2968 -0.199906L69.3862 -0.199906L69.4458 -0.133301L69.2968 9.40265e-05ZM76.0178 7.50819L76.1668 7.37479L76.2163 7.43003L76.2178 7.50415L76.0178 7.50819ZM76.5 31.3941L76.7 31.3901L76.7 31.3941L76.5 31.3941ZM76.5 33.3941L76.7 33.3941L76.7 33.7174L76.4107 33.5731L76.5 33.3941ZM76.4679 33.3781L76.268 33.3736L76.2751 33.0584L76.5572 33.1991L76.4679 33.3781ZM75.3978 40.4404L75.5889 40.4994L75.4426 40.9737L75.2192 40.5304L75.3978 40.4404ZM52.1678 42.5668L51.9963 42.6697L51.9958 42.6689L52.1678 42.5668ZM50.4748 38.0849L50.2809 38.1341L50.2523 38.0212L50.3364 37.9406L50.4748 38.0849ZM54.9548 45.5766L55.0659 45.4103L55.0687 45.4123L54.9548 45.5766ZM62.3388 45.6911L62.4522 45.8559L62.4516 45.8563L62.3388 45.6911ZM64.9938 42.8776L65.1659 42.9797L65.1628 42.9846L64.9938 42.8776ZM66.7028 38.592L66.5092 38.542L66.5092 38.5419L66.7028 38.592ZM66.8028 27.3054L66.9972 27.2576L66.999 27.2664L66.8028 27.3054ZM65.0938 22.8889L65.2663 22.7877L65.2664 22.7879L65.0938 22.8889ZM62.3388 19.9773L62.4527 19.813L62.4527 19.813L62.3388 19.9773ZM54.8388 19.9773L54.7249 19.8129L54.7278 19.811L54.8388 19.9773ZM52.0678 22.9217L52.2404 23.0228L52.2392 23.0247L52.0678 22.9217ZM50.3588 27.3054L50.5526 27.355L50.5524 27.3556L50.3588 27.3054ZM49.8278 32.7361L49.6278 32.7478L49.6278 32.7361L49.8278 32.7361ZM49.8318 32.8047L49.6322 32.8176L49.6321 32.8164L49.8318 32.8047ZM50.4918 38.0686L50.6854 38.0186L50.7147 38.1319L50.6302 38.213L50.4918 38.0686ZM71.8896 46.7289C73.3648 44.854 74.4168 42.7011 75.1742 40.3144L75.5554 40.4354C74.7867 42.8579 73.7148 45.0561 72.204 46.9762L71.8896 46.7289ZM66.4846 50.974C68.6174 49.955 70.4169 48.5992 71.8897 46.7288L72.2039 46.9763C70.6887 48.9007 68.8382 50.2929 66.657 51.3349L66.4846 50.974ZM64.5286 51.7787C65.1387 51.6206 65.8703 51.3011 66.4767 50.9779L66.6649 51.3309C66.0433 51.6622 65.2809 51.9969 64.629 52.1659L64.5286 51.7787ZM64.1308 51.9032C64.203 51.9032 64.2883 51.8803 64.3639 51.8511C64.4 51.8373 64.4304 51.8234 64.4514 51.8131C64.4619 51.808 64.4698 51.8038 64.4749 51.8012C64.4774 51.7998 64.4792 51.7989 64.4801 51.7984C64.4806 51.7981 64.4809 51.7979 64.481 51.7979C64.481 51.7979 64.481 51.7979 64.4809 51.7979C64.4809 51.798 64.4808 51.798 64.4807 51.798C64.4807 51.798 64.4807 51.7981 64.4806 51.7981C64.4806 51.7981 64.4806 51.7981 64.4806 51.7981C64.4805 51.7981 64.4805 51.7981 64.5788 51.9723C64.6771 52.1465 64.677 52.1465 64.677 52.1466C64.677 52.1466 64.677 52.1466 64.6769 52.1466C64.6769 52.1466 64.6768 52.1467 64.6768 52.1467C64.6766 52.1468 64.6765 52.1468 64.6764 52.1469C64.6761 52.1471 64.6757 52.1473 64.6753 52.1475C64.6745 52.148 64.6734 52.1486 64.6722 52.1493C64.6696 52.1506 64.6662 52.1525 64.6619 52.1547C64.6534 52.1592 64.6416 52.1653 64.6269 52.1725C64.5977 52.1868 64.5566 52.2056 64.5077 52.2244C64.4133 52.2608 64.2746 52.3032 64.1308 52.3032L64.1308 51.9032ZM63.6687 52.0667C63.755 51.9918 63.8397 51.9473 63.9263 51.9243C64.0089 51.9023 64.0836 51.9032 64.1308 51.9032L64.1308 52.3032C64.079 52.3032 64.0542 52.3041 64.029 52.3108C64.0079 52.3165 63.9766 52.3292 63.9308 52.3688L63.6687 52.0667ZM63.3998 52.3322C63.3998 52.268 63.4169 52.2018 63.4603 52.1448C63.5023 52.0897 63.5563 52.06 63.6007 52.0439C63.6797 52.0154 63.7676 52.0177 63.7998 52.0177L63.7998 52.4177C63.7779 52.4177 63.7628 52.4178 63.7493 52.4189C63.7354 52.42 63.7328 52.4215 63.7366 52.4202C63.7415 52.4184 63.761 52.4102 63.7785 52.3872C63.7973 52.3625 63.7998 52.3392 63.7998 52.3322L63.3998 52.3322ZM61.9832 52.4635L63.5592 52.1364L63.6404 52.5281L62.0644 52.8552L61.9832 52.4635ZM57.6541 52.656C59.3667 52.7533 60.8456 52.6557 61.9905 52.4621L62.0571 52.8565C60.88 53.0556 59.3709 53.1542 57.6315 53.0553L57.6541 52.656ZM50.9234 51.1036C52.8887 52.0078 55.12 52.5424 57.6518 52.6558L57.6338 53.0554C55.0556 52.9399 52.7729 52.3948 50.7562 51.467L50.9234 51.1036ZM45.5168 46.8706C46.9938 48.6175 48.797 50.0716 50.9271 51.1054L50.7525 51.4653C48.5686 50.4053 46.7218 48.9152 45.2114 47.1289L45.5168 46.8706ZM42.2368 40.4478C42.9935 42.9451 44.0446 44.9998 45.5213 46.876L45.2069 47.1234C43.6968 45.2047 42.6239 43.1045 41.854 40.5638L42.2368 40.4478ZM41.2 32.687C41.2 35.3882 41.5138 38.0829 42.2367 40.4474L41.8541 40.5643C41.1168 38.1524 40.8 35.4164 40.8 32.687L41.2 32.687ZM42.2534 24.8936C41.5301 27.2756 41.2 29.8727 41.2 32.687L40.8 32.687C40.8 29.8418 41.1337 27.2044 41.8706 24.7774L42.2534 24.8936ZM45.5395 18.5777C44.1757 20.3594 43.0086 22.5144 42.2526 24.896L41.8714 24.775C42.642 22.3475 43.8311 20.1514 45.2219 18.3346L45.5395 18.5777ZM49.1434 15.3827C47.7636 16.3225 46.5985 17.3414 45.5326 18.5862L45.2288 18.3261C46.3199 17.0519 47.512 16.0098 48.9182 15.0521L49.1434 15.3827ZM50.9416 14.3517C50.2886 14.6573 49.7667 14.9626 49.1426 15.3833L48.919 15.0516C49.5569 14.6216 50.097 14.3054 50.772 13.9894L50.9416 14.3517ZM50.9398 14.3705L50.8568 14.3705L50.8568 13.9705L50.9398 13.9705L50.9398 14.3705ZM51.2558 14.0723C51.2558 14.1395 51.2348 14.202 51.1948 14.2528C51.1571 14.3007 51.1111 14.3275 51.0758 14.3424C51.0404 14.3574 51.0077 14.364 50.9859 14.367C50.9744 14.3687 50.9645 14.3695 50.9569 14.37C50.953 14.3702 50.9496 14.3703 50.9467 14.3704C50.9453 14.3705 50.944 14.3705 50.9429 14.3705C50.9423 14.3705 50.9417 14.3705 50.9412 14.3705C50.941 14.3705 50.9407 14.3705 50.9405 14.3705C50.9404 14.3705 50.9403 14.3705 50.9401 14.3705C50.9401 14.3705 50.94 14.3705 50.94 14.3705C50.9399 14.3705 50.9398 14.3705 50.9398 14.1705C50.9398 13.9705 50.9397 13.9705 50.9396 13.9705C50.9396 13.9705 50.9395 13.9705 50.9395 13.9705C50.9394 13.9705 50.9393 13.9705 50.9392 13.9705C50.9389 13.9705 50.9387 13.9705 50.9385 13.9705C50.9381 13.9705 50.9378 13.9705 50.9374 13.9705C50.9367 13.9706 50.936 13.9706 50.9355 13.9706C50.9343 13.9706 50.9334 13.9707 50.9327 13.9707C50.9314 13.9708 50.9306 13.9709 50.93 13.971C50.9299 13.971 50.9262 13.9714 50.9198 13.9741C50.9135 13.9767 50.8965 13.9851 50.8806 14.0054C50.8623 14.0286 50.8558 14.0543 50.8558 14.0723L51.2558 14.0723ZM51.3018 14.153C51.2763 14.181 51.1985 14.2723 51.0558 14.2723L51.0558 13.8723C51.049 13.8723 51.0398 13.8733 51.0293 13.8765C51.0188 13.8798 51.0103 13.8842 51.0041 13.8882C50.9984 13.892 50.9956 13.8948 50.9962 13.8942C50.9973 13.8931 50.9994 13.8909 51.0058 13.8839L51.3018 14.153ZM51.2996 14.1553L51.2994 14.1555L51.0082 13.8814L51.0083 13.8812L51.2996 14.1553ZM51.2718 14.1578C51.2737 14.1578 51.2791 14.1575 51.2866 14.1554C51.2942 14.1532 51.3009 14.15 51.3061 14.1468C51.3108 14.1439 51.3129 14.1418 51.3117 14.1429C51.3098 14.1447 51.3072 14.1473 51.2995 14.1554L51.0085 13.881C51.0199 13.8689 51.0511 13.8343 51.095 13.807C51.145 13.776 51.204 13.7578 51.2718 13.7578L51.2718 14.1578ZM54.8241 13.1079C53.5536 13.3357 52.3972 13.6261 51.3602 14.1372L51.1834 13.7784C52.2704 13.2427 53.47 12.9443 54.7535 12.7142L54.8241 13.1079ZM61.7248 12.6983C61.6935 12.8959 61.6935 12.8959 61.6936 12.8959C61.6935 12.8959 61.6936 12.8959 61.6935 12.8959C61.6935 12.8959 61.6934 12.8959 61.6932 12.8958C61.693 12.8958 61.6925 12.8957 61.6918 12.8956C61.6905 12.8954 61.6883 12.8951 61.6855 12.8946C61.6797 12.8938 61.6709 12.8924 61.6592 12.8907C61.6357 12.8873 61.6004 12.8824 61.5539 12.8762C61.4609 12.864 61.3232 12.8473 61.146 12.8293C60.7916 12.7935 60.2795 12.7529 59.6512 12.7347C58.3941 12.6982 56.6754 12.751 54.8267 13.1074L54.7509 12.7147C56.6362 12.3512 58.3855 12.2978 59.6629 12.3348C60.3019 12.3534 60.8236 12.3947 61.1863 12.4314C61.3676 12.4497 61.5093 12.467 61.606 12.4797C61.6543 12.486 61.6914 12.4912 61.7167 12.4949C61.7293 12.4967 61.7389 12.4982 61.7455 12.4992C61.7488 12.4997 61.7514 12.5001 61.7531 12.5003C61.754 12.5005 61.7547 12.5006 61.7552 12.5007C61.7554 12.5007 61.7556 12.5007 61.7558 12.5007C61.7559 12.5008 61.7559 12.5008 61.756 12.5008C61.756 12.5008 61.7561 12.5008 61.7248 12.6983ZM66.4593 14.2563C64.9761 13.623 63.3858 13.1065 61.7001 12.8968L61.7495 12.4999C63.4838 12.7156 65.1115 13.2459 66.6163 13.8884L66.4593 14.2563ZM66.955 14.4985C66.7901 14.4145 66.6228 14.3328 66.4531 14.2535L66.6225 13.8911C66.7963 13.9724 66.9677 14.0561 67.1366 14.1421L66.955 14.4985ZM66.8458 14.3203L66.8458 10.9976L67.2458 10.9976L67.2458 14.3203L66.8458 14.3203ZM66.8951 11.129L62.7561 6.38274L63.0575 6.11984L67.1965 10.8661L66.8951 11.129ZM62.7654 6.39271L62.3354 5.96271L62.6182 5.67987L63.0482 6.10987L62.7654 6.39271ZM62.2774 5.80656L62.7074 -0.01464L63.1063 0.0148269L62.6763 5.83602L62.2774 5.80656ZM62.9068 -0.199907L69.2968 -0.199906L69.2968 0.200094L62.9068 0.200093L62.9068 -0.199907ZM69.4458 -0.133301L76.1668 7.37479L75.8688 7.64158L69.1478 0.133489L69.4458 -0.133301ZM76.2178 7.50415L76.7 31.3901L76.3 31.3982L75.8179 7.51223L76.2178 7.50415ZM76.7 31.3941L76.7 33.3941L76.3 33.3941L76.3 31.3941L76.7 31.3941ZM76.4107 33.5731L76.3786 33.5571L76.5572 33.1991L76.5893 33.2152L76.4107 33.5731ZM75.2067 40.3815C75.877 38.2092 76.211 35.8738 76.268 33.3736L76.6679 33.3827C76.6102 35.9127 76.272 38.2856 75.5889 40.4994L75.2067 40.3815ZM75.5434 40.2849L75.5764 40.3504L75.2192 40.5304L75.1862 40.4649L75.5434 40.2849ZM51.9958 42.6689C51.2342 41.3848 50.6976 39.7764 50.2809 38.1341L50.6687 38.0358C51.082 39.6651 51.6074 41.2299 52.3398 42.4648L51.9958 42.6689ZM54.8437 45.743C53.7378 45.0046 52.7553 43.9346 51.9963 42.6697L52.3393 42.4639C53.0723 43.6854 54.0158 44.7092 55.0658 45.4103L54.8437 45.743ZM58.6888 46.9216C57.2375 46.9216 55.9367 46.5005 54.8409 45.741L55.0687 45.4123C56.0969 46.1249 57.3181 46.5216 58.6888 46.5216L58.6888 46.9216ZM62.4516 45.8563C61.3334 46.6198 60.1137 46.9216 58.6888 46.9216L58.6888 46.5216C60.0519 46.5216 61.1882 46.2346 62.226 45.526L62.4516 45.8563ZM65.1628 42.9846C64.4038 44.1829 63.5226 45.1194 62.4522 45.8559L62.2254 45.5264C63.247 44.8235 64.0918 43.928 64.8248 42.7706L65.1628 42.9846ZM66.8964 38.6421C66.4619 40.3243 65.9245 41.7004 65.1658 42.9797L64.8218 42.7756C65.5571 41.5359 66.0817 40.1966 66.5092 38.542L66.8964 38.6421ZM67.5668 33.3576C67.5668 35.2562 67.3325 36.9578 66.8964 38.6422L66.5092 38.5419C66.9371 36.8892 67.1668 35.2213 67.1668 33.3576L67.5668 33.3576ZM67.5668 32.7361L67.5668 33.3576L67.1668 33.3576L67.1668 32.7361L67.5668 32.7361ZM66.999 27.2664C67.3329 28.9449 67.5668 30.8393 67.5668 32.7361L67.1668 32.7361C67.1668 30.8707 66.9366 29.0029 66.6066 27.3445L66.999 27.2664ZM65.2664 22.7879C66.0255 24.0845 66.5787 25.5594 66.997 27.2576L66.6086 27.3533C66.1969 25.6819 65.6561 24.2452 64.9212 22.99L65.2664 22.7879ZM62.4527 19.813C63.5337 20.5622 64.5188 21.5148 65.2663 22.7877L64.9213 22.9902C64.2088 21.7768 63.2679 20.8647 62.2249 20.1417L62.4527 19.813ZM58.6058 18.7305C60.0119 18.7305 61.3488 19.0479 62.4527 19.813L62.2249 20.1417C61.2048 19.4348 59.9537 19.1305 58.6058 19.1305L58.6058 18.7305ZM54.7278 19.811C55.8459 19.0652 57.1635 18.7305 58.6058 18.7305L58.6058 19.1305C57.2261 19.1305 55.9897 19.4501 54.9498 20.1437L54.7278 19.811ZM51.8952 22.8207C52.6595 21.5153 53.6435 20.5625 54.7249 19.813L54.9527 20.1417C53.9101 20.8644 52.9701 21.7764 52.2404 23.0228L51.8952 22.8207ZM50.165 27.2559C50.5987 25.5607 51.1357 24.0846 51.8964 22.8187L52.2392 23.0247C51.5059 24.2451 50.9809 25.6805 50.5526 27.355L50.165 27.2559ZM49.6278 32.7361C49.6278 30.8508 49.7266 28.9491 50.1652 27.2553L50.5524 27.3556C50.127 28.9988 50.0278 30.8592 50.0278 32.7361L49.6278 32.7361ZM49.6321 32.8164L49.6281 32.7478L50.0275 32.7245L50.0315 32.7931L49.6321 32.8164ZM50.2982 38.1187C49.8666 36.4498 49.747 34.5915 49.6322 32.8176L50.0314 32.7918C50.1467 34.574 50.265 36.3929 50.6854 38.0186L50.2982 38.1187ZM50.3364 37.9406L50.3534 37.9243L50.6302 38.213L50.6132 38.2293L50.3364 37.9406Z" fill="black" mask="url(#path-7-inside-3_740_35)"/>
</svg>
